<?xml version="1.0" encoding="UTF-8" standalone="no"?>
<!-- Created with Inkscape (http://www.inkscape.org/) -->

<svg
   width="159.09mm"
   height="159.07458mm"
   viewBox="0 0 159.09 159.07458"
   version="1.1"
   id="svg5"
   inkscape:version="1.2.2 (732a01da63, 2022-12-09)"
   sodipodi:docname="MRTlogo.svg"
   xml:space="preserve"
   inkscape:export-filename="..\..\Desktop\MRTlogo.svg"
   inkscape:export-xdpi="96"
   inkscape:export-ydpi="96"
   xmlns:inkscape="http://www.inkscape.org/namespaces/inkscape"
   xmlns:sodipodi="http://sodipodi.sourceforge.net/DTD/sodipodi-0.dtd"
   xmlns:xlink="http://www.w3.org/1999/xlink"
   xmlns="http://www.w3.org/2000/svg"
   xmlns:svg="http://www.w3.org/2000/svg"><sodipodi:namedview
     id="namedview7"
     pagecolor="#ffffff"
     bordercolor="#000000"
     borderopacity="0.25"
     inkscape:showpageshadow="2"
     inkscape:pageopacity="0.0"
     inkscape:pagecheckerboard="0"
     inkscape:deskcolor="#d1d1d1"
     inkscape:document-units="mm"
     showgrid="false"
     inkscape:zoom="0.95497111"
     inkscape:cx="369.64469"
     inkscape:cy="575.93365"
     inkscape:window-width="1920"
     inkscape:window-height="1009"
     inkscape:window-x="-8"
     inkscape:window-y="-8"
     inkscape:window-maximized="1"
     inkscape:current-layer="layer2" /><defs
     id="defs2"><rect
       x="188.48738"
       y="536.14185"
       width="531.95325"
       height="193.72314"
       id="rect8240" /><linearGradient
       inkscape:collect="always"
       id="linearGradient49254"><stop
         style="stop-color:#996aff;stop-opacity:1;"
         offset="0"
         id="stop49250" /><stop
         style="stop-color:#6a6aff;stop-opacity:0;"
         offset="1"
         id="stop49252" /></linearGradient><linearGradient
       inkscape:collect="always"
       id="linearGradient49246"><stop
         style="stop-color:#ff0011;stop-opacity:1;"
         offset="0"
         id="stop49242" /><stop
         style="stop-color:#ccccff;stop-opacity:0;"
         offset="1"
         id="stop49244" /></linearGradient><inkscape:path-effect
       effect="spiro"
       id="path-effect49217"
       is_visible="true"
       lpeversion="1" /><inkscape:path-effect
       effect="spiro"
       id="path-effect49187"
       is_visible="true"
       lpeversion="1" /><linearGradient
       inkscape:collect="always"
       xlink:href="#linearGradient49246"
       id="linearGradient49248"
       x1="44.16391"
       y1="135.69603"
       x2="183.28069"
       y2="135.69603"
       gradientUnits="userSpaceOnUse"
       gradientTransform="matrix(2.5139881,0,0,2.3965282,-80.692534,-104.34015)" /><linearGradient
       inkscape:collect="always"
       xlink:href="#linearGradient49254"
       id="linearGradient49256"
       x1="35.590191"
       y1="194.16222"
       x2="131.85826"
       y2="194.16222"
       gradientUnits="userSpaceOnUse"
       gradientTransform="matrix(2.0660568,-1.4181676,1.5026504,1.9498978,-280.79343,-82.159857)" /><mask
       maskUnits="userSpaceOnUse"
       id="mask9598"><rect
         style="mix-blend-mode:normal;fill:#ccccff;fill-opacity:1;stroke:#ccccff;stroke-width:20;stroke-linecap:round;stroke-linejoin:round;stroke-dasharray:none;stroke-dashoffset:0;stroke-opacity:1;paint-order:normal"
         id="rect9600"
         width="138.25243"
         height="138.25243"
         x="37.680027"
         y="97.524765"
         d="M 37.680027,97.524765 H 175.93245 V 235.77719 H 37.680027 Z" /></mask><mask
       maskUnits="userSpaceOnUse"
       id="mask9602"><rect
         style="mix-blend-mode:normal;fill:#ccccff;fill-opacity:1;stroke:#ccccff;stroke-width:20;stroke-linecap:round;stroke-linejoin:round;stroke-dasharray:none;stroke-dashoffset:0;stroke-opacity:1;paint-order:normal"
         id="rect9604"
         width="138.25243"
         height="138.25243"
         x="37.680027"
         y="97.524765"
         d="M 37.680027,97.524765 H 175.93245 V 235.77719 H 37.680027 Z" /></mask><linearGradient
       inkscape:collect="always"
       xlink:href="#linearGradient49246"
       id="linearGradient1158"
       gradientUnits="userSpaceOnUse"
       gradientTransform="matrix(2.5139881,0,0,2.3965282,-80.692534,-104.34015)"
       x1="44.16391"
       y1="135.69603"
       x2="183.28069"
       y2="135.69603" /><linearGradient
       inkscape:collect="always"
       xlink:href="#linearGradient49254"
       id="linearGradient1160"
       gradientUnits="userSpaceOnUse"
       gradientTransform="matrix(2.0660568,-1.4181676,1.5026504,1.9498978,-280.79343,-82.159857)"
       x1="35.590191"
       y1="194.16222"
       x2="131.85826"
       y2="194.16222" /></defs><g
     inkscape:groupmode="layer"
     id="layer2"
     inkscape:label="Layer 1"
     transform="translate(-30.866208,-69.377409)"><rect
       style="display:inline;mix-blend-mode:normal;fill:#ccccff;fill-opacity:1;stroke:#ccccff;stroke-width:20;stroke-linecap:round;stroke-linejoin:round;stroke-dasharray:none;stroke-dashoffset:0;stroke-opacity:1;paint-order:normal"
       id="rect37348-0"
       width="138.25243"
       height="138.25243"
       x="40.866207"
       y="79.377411"
       inkscape:export-filename="..\..\Desktop\text8238.svg"
       inkscape:export-xdpi="96"
       inkscape:export-ydpi="96"
       mask="none" /><path
       id="path49185-3"
       mask="none"
       style="display:inline;fill:url(#linearGradient1158);fill-opacity:1;stroke:#000000;stroke-width:1.646;stroke-linecap:round;stroke-linejoin:round;stroke-miterlimit:3.7;stroke-dasharray:none;stroke-dashoffset:0;stroke-opacity:0;paint-order:normal"
       d="m 85.681265,109.41827 c -11.076604,-0.12137 -22.245269,2.0578 -31.892111,7.43366 -5.51248,3.07192 -10.477114,7.1673 -14.366048,12.13724 -3.888933,4.96994 -6.686001,10.82128 -7.892541,17.0155 -1.67449,8.59661 -0.245072,17.61308 3.042708,25.73073 3.28778,8.11765 8.363326,15.40553 14.044621,22.071 19.826181,23.26071 46.817048,39.12209 74.641956,51.96996 h 52.67327 a 10.001,10.001 0 0 0 9.99991,-9.99991 v -96.21532 c -7.94649,-2.14555 -15.82248,-4.52806 -23.57686,-7.31789 -23.7521,-8.54541 -46.75558,-20.89706 -71.938244,-22.6348 -1.573916,-0.10861 -3.154289,-0.17283 -4.736661,-0.19017 z"
       transform="translate(3.1861792,-18.147357)" /><path
       id="path49215-6"
       mask="none"
       style="display:inline;mix-blend-mode:normal;fill:url(#linearGradient1160);fill-opacity:1;stroke:#000000;stroke-width:1.674;stroke-linecap:round;stroke-linejoin:round;stroke-miterlimit:3.7;stroke-dasharray:none;stroke-dashoffset:0;stroke-opacity:0;paint-order:normal"
       inkscape:label="path49215-6"
       d="m 88.378258,106.33991 c -2.998728,-0.0247 -5.99634,0.1377 -8.973096,0.51521 -7.938015,1.00668 -15.728769,3.57264 -22.45341,7.90908 -11.933588,7.69546 -19.962311,20.84314 -22.327836,34.84438 -2.365524,14.00125 0.72605,28.69078 7.670333,41.07657 6.944284,12.38577 17.591659,22.50986 29.816268,29.7341 12.22461,7.22424 25.990101,11.62736 40.008413,13.88959 24.39055,3.93607 49.22764,1.49966 73.8141,-1.63453 v -92.00058 c -12.94759,-4.28951 -25.46293,-10.11033 -37.82715,-15.94528 -14.47254,-6.82991 -29.10988,-13.78497 -44.82001,-16.8336 -4.909405,-0.95269 -9.909732,-1.51375 -14.907612,-1.55494 z"
       transform="translate(3.1861792,-18.147357)" /><path
       id="text8238-7"
       style="font-style:normal;font-variant:normal;font-weight:normal;font-stretch:normal;font-size:96px;font-family:Roboto;-inkscape-font-specification:'Roboto, Normal';font-variant-ligatures:normal;font-variant-caps:normal;font-variant-numeric:normal;font-variant-east-asian:normal;white-space:pre;shape-inside:url(#rect8240);display:inline;mix-blend-mode:normal;fill:#000000;fill-opacity:0.956863;stroke:#ccccff;stroke-width:3.624;stroke-linecap:round;stroke-linejoin:round;stroke-miterlimit:3.7;stroke-dasharray:none;stroke-dashoffset:0;stroke-opacity:0"
       d="m 56.494037,128.57236 v 39.09426 h 5.155242 v -15.2244 l -0.510045,-16.35197 12.807485,31.57637 h 3.94704 l 12.83488,-31.65699 -0.48369,16.43259 v 15.2244 h 5.15524 v -39.09426 h -6.68538 l -12.78113,31.89831 -12.781135,-31.89831 z m 47.982083,0 v 39.09426 h 5.18211 v -15.81506 h 9.18291 l 8.48475,15.81506 h 5.53145 v -0.32195 l -9.18342,-16.59382 c 2.34495,-0.89502 4.17097,-2.24659 5.4777,-4.05453 1.32463,-1.80794 1.98695,-3.92898 1.98695,-6.36344 0,-3.83069 -1.19008,-6.74862 -3.57083,-8.75347 -2.36286,-2.00485 -5.74627,-3.00705 -10.14977,-3.00705 z m 28.51506,0 v 4.24212 h 12.53928 v 34.85214 h 5.12837 v -34.85214 h 12.56616 v -4.24212 z m -23.33295,4.24212 h 7.8941 c 2.72086,0.0179 4.79704,0.67126 6.22907,1.96009 1.44994,1.28882 2.17506,3.14176 2.17506,5.55831 0,2.21966 -0.76101,3.99184 -2.28254,5.31647 -1.50364,1.32464 -3.53496,1.98696 -6.09472,1.98696 h -7.92097 z"
       inkscape:export-filename="..\..\Desktop\text8238.svg"
       inkscape:export-xdpi="96"
       inkscape:export-ydpi="96"
       mask="none" /></g><g
     inkscape:groupmode="layer"
     id="layer1"
     inkscape:label="Layer 2"
     style="display:none"
     transform="translate(-30.866208,-69.377409)"><rect
       style="display:inline;opacity:1;mix-blend-mode:normal;fill:#ccccff;fill-opacity:1;stroke:#ccccff;stroke-width:20;stroke-linecap:round;stroke-linejoin:round;stroke-dasharray:none;stroke-dashoffset:0;stroke-opacity:1;paint-order:normal"
       id="rect37348"
       width="138.25243"
       height="138.25243"
       x="37.680027"
       y="97.524765"
       inkscape:export-filename="..\..\Desktop\text8238.svg"
       inkscape:export-xdpi="96"
       inkscape:export-ydpi="96"
       sodipodi:insensitive="true" /><path
       style="display:inline;opacity:1;fill:url(#linearGradient49248);fill-opacity:1;stroke:#000000;stroke-width:1.646;stroke-linecap:round;stroke-linejoin:round;stroke-miterlimit:3.7;stroke-dasharray:none;stroke-dashoffset:0;stroke-opacity:0;paint-order:normal"
       d="m 162.35627,132.24307 c -23.75212,-8.54542 -46.75558,-20.89674 -71.93827,-22.63448 -12.591344,-0.86888 -25.603803,1.09924 -36.628775,7.24309 -5.512487,3.07193 -10.47718,7.16735 -14.366118,12.1373 -3.888937,4.96994 -6.685827,10.82141 -7.892368,17.01564 -1.674491,8.59662 -0.245434,17.61328 3.042349,25.73094 3.287784,8.11765 8.363599,15.40537 14.0449,22.07085 21.17196,24.83962 50.513629,41.24224 80.317112,54.54679 29.80348,13.30455 60.84135,24.10716 89.12147,40.40113 18.99073,10.94176 36.65355,24.31446 56.67403,33.23355 10.01025,4.45955 20.60746,7.77669 31.51157,8.86882 10.90412,1.09212 22.14219,-0.10363 32.24527,-4.34866 13.38412,-5.62362 24.31503,-16.53026 30.70018,-29.56828 6.38514,-13.03801 8.32015,-28.07784 6.25341,-42.44754 -2.06674,-14.3697 -8.03527,-28.05977 -16.49078,-39.86079 -8.4555,-11.80103 -19.35099,-21.75075 -31.41759,-29.82272 -24.13321,-16.14395 -52.50187,-24.68112 -80.78087,-31.26424 -28.27899,-6.58312 -57.07477,-11.47208 -84.39552,-21.3014 z"
       id="path49185"
       inkscape:original-d="m 162.35627,132.24307 c -58.71075,-64.756229 -87.216673,9.17559 -130.825531,13.76155 -43.608849,4.586 11.391843,31.86907 17.087249,47.80179 5.695407,15.93279 112.959392,63.29978 169.438582,94.94792 56.47917,31.64808 80.28759,25.17034 120.43087,37.75371 40.14332,12.58327 -117.42043,-129.50886 -176.13117,-194.26497 z"
       inkscape:path-effect="#path-effect49187"
       mask="url(#mask9602)"
       sodipodi:insensitive="true" /><path
       style="display:inline;opacity:1;mix-blend-mode:normal;fill:url(#linearGradient49256);fill-opacity:1;stroke:#000000;stroke-width:1.674;stroke-linecap:round;stroke-linejoin:round;stroke-miterlimit:3.7;stroke-dasharray:none;stroke-dashoffset:0;stroke-opacity:0;paint-order:normal"
       d="m 322.79331,231.46148 c 7.81073,-3.10726 14.06354,-9.67783 17.26801,-17.44918 3.20448,-7.77135 3.44113,-16.63565 1.16693,-24.72828 -2.2742,-8.09262 -6.97738,-15.41238 -13.02512,-21.25082 -6.04774,-5.83843 -13.40733,-10.23044 -21.23004,-13.30741 -15.64542,-6.15395 -32.82202,-7.06415 -49.63413,-7.00861 -16.81211,0.0555 -33.74847,0.99414 -50.3387,-1.72881 -20.66659,-3.39201 -39.95464,-12.32183 -58.89461,-21.26002 -14.47255,-6.82992 -29.10957,-13.78475 -44.81971,-16.83338 -7.855064,-1.52431 -15.942973,-2.04652 -23.880996,-1.03983 -7.938023,1.00668 -15.728587,3.57275 -22.453235,7.90919 -11.9336,7.69547 -19.962051,20.84309 -22.327578,34.84435 -2.365526,14.00126 0.72585,28.6905 7.67014,41.0763 6.944291,12.38579 17.591813,22.51022 29.816434,29.73447 12.224622,7.22425 25.990112,11.62739 40.008435,13.88962 28.03665,4.52447 56.66386,0.63174 84.82149,-3.06587 28.15763,-3.69761 56.89711,-7.18419 84.79558,-1.87382 6.83612,1.30123 13.58102,3.12575 20.4875,3.97801 6.90647,0.85226 14.10361,0.68639 20.5696,-1.88591 z"
       id="path49215"
       mask="url(#mask9598)"
       inkscape:original-d="m 322.79331,231.46148 c 13.68607,0.69769 -77.19573,-56.98245 -115.79305,-85.47311 -38.5973,-28.49063 -39.26343,-14.17371 -58.89461,-21.26002 -19.63113,-7.0863 -60.769676,-6.64307 -91.153941,-9.96402 -30.384255,-3.32095 149.855981,76.40303 224.784501,114.60505 74.92853,38.20208 27.37105,1.39438 41.0571,2.0921 z"
       inkscape:path-effect="#path-effect49217"
       sodipodi:insensitive="true" /><path
       id="text8238"
       style="font-style:normal;font-variant:normal;font-weight:normal;font-stretch:normal;font-size:96px;font-family:Roboto;-inkscape-font-specification:'Roboto, Normal';font-variant-ligatures:normal;font-variant-caps:normal;font-variant-numeric:normal;font-variant-east-asian:normal;white-space:pre;shape-inside:url(#rect8240);display:inline;opacity:1;mix-blend-mode:normal;fill:#000000;fill-opacity:0.956863;stroke:#ccccff;stroke-width:6.32666;stroke-linecap:round;stroke-linejoin:round;stroke-miterlimit:3.7;stroke-dasharray:none;stroke-dashoffset:0;stroke-opacity:0"
       d="m 196.41055,551.89281 v 68.24946 h 8.99985 v -26.57825 l -0.89042,-28.54673 22.35888,55.12498 h 6.89062 l 22.4067,-55.26572 -0.84441,28.68747 v 26.57825 h 8.99985 v -68.24946 h -11.67111 l -22.31288,55.68702 -22.31288,-55.68702 z m 83.76553,0 v 68.24946 h 9.04676 v -27.6094 h 16.03121 l 14.8124,27.6094 h 9.65662 v -0.56204 l -16.03211,-28.96894 c 4.09374,-1.5625 7.28154,-3.92203 9.56279,-7.07827 2.3125,-3.15625 3.46876,-6.85908 3.46876,-11.10908 0,-6.68749 -2.07761,-11.78152 -6.23385,-15.28152 -4.125,-3.5 -10.03164,-5.24961 -17.71913,-5.24961 z m 49.78064,0 v 7.40575 h 21.89067 v 60.84371 h 8.95294 v -60.84371 h 21.93758 v -7.40575 z m -40.73388,7.40575 h 13.78125 c 4.74999,0.0312 8.37452,1.17186 10.87451,3.42186 2.53125,2.24999 3.79715,5.48478 3.79715,9.70352 0,3.875 -1.32855,6.96882 -3.98479,9.28132 -2.625,2.3125 -6.17122,3.46877 -10.63996,3.46877 h -13.82816 z"
       transform="matrix(0.57281416,0,0,0.57281416,-59.198886,-169.41229)"
       inkscape:export-filename="..\..\Desktop\text8238.svg"
       inkscape:export-xdpi="96"
       inkscape:export-ydpi="96"
       sodipodi:insensitive="true" /></g></svg>
